<svg width="32" height="32" viewBox="0 0 32 32" xmlns="http://www.w3.org/2000/svg">
  <!-- Background with rounded corners -->
  <rect width="32" height="32" rx="0" fill="#1db954"/>
  
  <!-- Left bracket { representing tool/code -->
  <path d="M10 10C10 10 8 10 8 12V14.5C8 15.5 6.5 16 6.5 16C6.5 16 8 16.5 8 17.5V20C8 22 10 22 10 22" 
        stroke="white" stroke-width="1.8" stroke-linecap="round" fill="none"/>
  
  <!-- Right bracket } representing tool/code -->
  <path d="M22 10C22 10 24 10 24 12V14.5C24 15.5 25.5 16 25.5 16C25.5 16 24 16.5 24 17.5V20C24 22 22 22 22 22" 
        stroke="white" stroke-width="1.8" stroke-linecap="round" fill="none"/>
  
  <!-- Voice/Audio waves in center -->
  <rect x="14.5" y="12" width="3" height="8" rx="1.5" fill="white"/>
  <path d="M12 13.5V18.5" stroke="white" stroke-width="2" stroke-linecap="round"/>
  <path d="M20 14.5V17.5" stroke="white" stroke-width="2" stroke-linecap="round"/>
</svg>
